<?xml version="1.0"?>
<svg xmlns="http://www.w3.org/2000/svg" width="2048" height="491" viewBox="0 0 2048 491" role="img" aria-label="LaScuola360 logo">
  <defs>
    <linearGradient id="iconGradient" gradientUnits="userSpaceOnUse" x1="40" y1="245.5" x2="487" y2="245.5">
      <stop offset="0%" stop-color="#f37c57"></stop>
      <stop offset="58%" stop-color="#f77f7d"></stop>
      <stop offset="100%" stop-color="#fa81a4"></stop>
    </linearGradient>
    <linearGradient id="textGradient" gradientUnits="userSpaceOnUse" x1="577" y1="245.5" x2="2002" y2="245.5">
      <stop offset="0%" stop-color="#f37c51"></stop>
      <stop offset="45%" stop-color="#f67e74"></stop>
      <stop offset="75%" stop-color="#fa819e"></stop>
      <stop offset="100%" stop-color="#fd83c4"></stop>
    </linearGradient>
  </defs>
  <g fill-rule="evenodd" clip-rule="evenodd">
    <path d="M248.00,426.03 L245.00,426.20 L225.00,426.18 L220.00,425.63 L214.00,425.36 L212.00,424.76 L208.00,424.47 L206.00,423.79 L203.00,423.49 L201.00,422.94 L191.00,421.12 L190.00,420.67 L188.00,420.43 L186.00,419.60 L185.00,419.50 L184.00,419.16 L183.00,418.66 L181.00,418.30 L180.00,417.86 L179.00,417.69 L175.00,416.43 L174.00,416.32 L173.00,415.73 L171.00,415.13 L170.00,414.57 L169.00,414.42 L168.00,413.80 L167.00,413.55 L162.00,411.62 L161.00,411.38 L160.00,410.75 L159.00,410.47 L156.00,408.91 L152.00,407.29 L151.00,406.69 L150.00,406.40 L147.00,404.63 L142.00,402.25 L138.00,399.71 L134.00,397.49 L133.00,396.77 L132.00,396.34 L131.00,395.50 L126.00,392.35 L122.88,390.00 L119.00,387.37 L117.00,385.59 L114.00,383.45 L108.00,378.39 L98.00,368.91 L93.00,363.83 L87.57,358.00 L81.73,351.00 L80.39,349.00 L78.66,347.00 L76.00,343.03 L73.69,340.00 L71.34,336.00 L70.55,335.00 L68.66,332.00 L67.08,329.00 L65.73,327.00 L65.33,326.00 L64.56,325.00 L62.55,321.00 L62.21,320.00 L59.90,316.00 L56.44,308.00 L55.76,307.00 L53.17,300.00 L52.67,299.00 L52.08,297.00 L51.51,296.00 L51.34,295.00 L50.68,294.00 L50.19,292.00 L49.69,291.00 L48.15,285.00 L47.66,284.00 L47.33,282.00 L46.78,281.00 L46.40,279.00 L45.60,277.00 L45.35,275.00 L44.89,274.00 L44.62,272.00 L43.50,267.00 L43.28,265.00 L42.53,262.00 L42.30,259.00 L41.63,257.00 L41.25,251.00 L40.71,248.00 L40.54,230.00 L40.68,212.00 L41.33,208.00 L41.60,203.00 L42.24,201.00 L42.51,198.00 L43.26,195.00 L43.45,193.00 L44.59,188.00 L44.85,186.00 L45.26,185.00 L45.84,182.00 L46.36,181.00 L46.64,179.00 L47.23,178.00 L47.60,176.00 L48.06,175.00 L49.07,171.00 L49.98,168.00 L50.45,167.00 L50.59,166.00 L51.22,165.00 L51.80,163.00 L52.36,162.00 L52.60,161.00 L53.13,160.00 L53.35,159.00 L54.55,156.00 L54.77,155.00 L55.41,154.00 L55.66,153.00 L56.37,152.00 L56.65,151.00 L57.32,150.00 L57.59,149.00 L59.83,144.00 L62.11,140.00 L64.00,136.01 L67.11,131.00 L68.66,128.00 L74.53,119.00 L76.18,117.00 L78.78,113.00 L80.53,111.00 L82.68,108.00 L87.70,102.00 L92.00,97.21 L97.00,91.99 L106.00,83.36 L111.03,79.00 L116.00,74.99 L119.00,72.66 L121.00,71.38 L123.00,69.67 L127.00,67.16 L130.00,64.90 L135.00,61.82 L136.00,61.41 L137.00,60.54 L143.00,57.34 L144.00,56.66 L145.00,56.28 L146.00,55.50 L152.00,52.60 L153.00,52.26 L154.00,51.58 L155.00,51.32 L156.00,50.57 L157.00,50.29 L158.00,49.72 L162.00,48.24 L163.00,47.68 L164.00,47.42 L168.00,45.62 L169.00,45.41 L170.00,44.83 L171.00,44.64 L176.00,43.07 L177.00,42.58 L178.00,42.45 L179.00,42.10 L180.00,41.53 L181.00,41.42 L183.00,40.63 L184.00,40.52 L186.00,39.85 L190.00,39.02 L191.00,38.65 L193.00,38.34 L195.00,37.62 L197.00,37.40 L198.00,37.14 L199.00,36.64 L202.00,36.35 L204.00,35.71 L207.00,35.54 L210.00,34.96 L218.00,34.30 L236.00,33.96 L255.00,34.28 L264.00,34.98 L266.00,35.45 L269.00,35.69 L271.00,36.34 L274.00,36.63 L275.00,37.13 L276.00,37.41 L278.00,37.61 L280.00,38.33 L281.00,38.41 L283.00,39.01 L287.00,39.82 L289.00,40.49 L290.00,40.61 L292.00,41.38 L293.00,41.51 L294.00,41.85 L295.00,42.40 L296.00,42.53 L298.00,43.33 L303.00,44.83 L307.00,46.46 L308.00,46.70 L309.00,47.36 L310.00,47.62 L311.00,48.21 L312.00,48.44 L315.00,49.65 L319.00,51.49 L320.00,52.14 L324.00,53.83 L325.00,54.44 L326.00,54.76 L330.00,57.21 L331.00,57.56 L334.00,59.26 L335.00,59.66 L339.00,62.30 L343.00,64.57 L344.00,65.43 L349.00,68.66 L356.00,73.76 L359.00,76.32 L361.00,77.71 L364.00,80.41 L368.00,83.65 L373.57,89.00 L382.37,98.00 L385.65,102.00 L388.37,105.00 L390.57,108.00 L392.36,110.00 L398.18,118.00 L400.22,121.00 L400.71,122.00 L402.23,124.00 L403.85,127.00 L405.29,129.00 L407.14,132.00 L408.61,135.00 L409.28,136.00 L409.64,137.00 L410.45,138.00 L412.02,141.00 L413.37,144.00 L413.67,145.00 L414.37,146.00 L414.63,147.00 L415.34,148.00 L415.63,149.00 L416.27,150.00 L416.51,151.00 L418.91,157.00 L419.46,158.00 L419.72,159.00 L420.41,160.00 L420.56,161.00 L421.07,162.00 L422.97,168.00 L423.47,169.00 L423.60,170.00 L424.48,172.00 L424.61,173.00 L425.15,174.00 L425.56,176.00 L426.25,178.00 L427.00,178.48 L452.00,178.77 L485.00,179.49 L486.00,179.59 L486.91,180.00 L486.68,181.00 L484.76,183.00 L481.42,187.00 L475.68,193.00 L472.23,197.00 L465.52,204.00 L458.25,212.00 L451.43,219.00 L439.26,232.00 L411.39,261.00 L398.00,274.60 L394.00,278.35 L393.00,278.23 L390.51,276.00 L385.43,271.00 L370.80,256.00 L369.04,254.00 L366.00,251.00 L350.00,234.09 L347.84,232.00 L340.50,224.00 L333.71,217.00 L328.00,210.64 L321.00,203.24 L316.39,198.00 L312.00,193.39 L307.32,188.00 L304.50,185.00 L300.48,180.00 L301.00,179.54 L308.00,178.78 L312.00,178.55 L357.00,178.40 L358.00,178.36 L358.37,178.00 L358.19,177.00 L356.97,175.00 L355.16,171.00 L354.53,170.00 L354.18,169.00 L352.87,167.00 L350.19,162.00 L348.78,160.00 L348.30,159.00 L347.50,158.00 L345.00,154.05 L340.43,148.00 L334.00,140.51 L325.00,131.60 L318.00,125.70 L311.00,120.63 L306.00,117.49 L305.00,116.68 L300.00,114.05 L298.00,112.77 L297.00,112.42 L296.00,111.68 L292.00,110.06 L289.00,108.58 L288.00,108.27 L287.00,107.57 L286.00,107.36 L285.00,106.77 L280.00,105.19 L279.00,104.69 L277.00,104.25 L276.00,103.64 L275.00,103.50 L273.00,102.63 L272.00,102.51 L270.00,101.83 L264.00,100.53 L261.00,100.14 L259.00,99.57 L256.00,99.32 L255.00,98.89 L254.00,98.67 L250.00,98.48 L247.00,97.94 L244.00,97.66 L230.00,97.63 L227.00,97.83 L223.00,98.48 L220.00,98.60 L219.00,98.73 L217.00,99.38 L214.00,99.60 L212.00,100.26 L210.00,100.40 L208.00,100.94 L203.00,101.91 L202.00,102.39 L200.00,102.76 L199.00,103.37 L197.00,103.75 L196.00,104.35 L195.00,104.52 L188.00,106.92 L187.00,107.47 L186.00,107.72 L185.00,108.42 L184.00,108.68 L183.00,109.36 L182.00,109.62 L179.00,110.88 L175.00,113.18 L174.00,113.54 L173.00,114.23 L168.00,116.80 L166.00,118.30 L162.00,120.62 L155.00,125.80 L145.00,134.91 L139.98,140.00 L134.60,146.00 L129.68,152.00 L125.56,158.00 L123.29,162.00 L121.90,164.00 L121.46,165.00 L120.78,166.00 L118.41,171.00 L117.77,172.00 L117.42,173.00 L116.69,174.00 L116.44,175.00 L115.86,176.00 L113.24,183.00 L112.59,184.00 L112.41,185.00 L111.82,186.00 L110.87,189.00 L110.16,192.00 L109.46,194.00 L109.34,195.00 L108.59,197.00 L108.30,199.00 L107.70,200.00 L107.49,202.00 L106.82,204.00 L106.63,206.00 L106.01,209.00 L105.87,211.00 L105.37,214.00 L105.19,218.00 L104.69,221.00 L104.55,223.00 L104.46,232.00 L104.60,238.00 L105.17,242.00 L105.36,246.00 L105.85,249.00 L106.00,251.00 L106.62,254.00 L106.81,256.00 L107.47,258.00 L107.69,260.00 L108.26,261.00 L108.59,263.00 L109.36,265.00 L109.46,266.00 L111.84,274.00 L112.42,275.00 L112.63,276.00 L113.33,277.00 L113.53,278.00 L116.87,286.00 L121.56,295.00 L122.38,296.00 L122.78,297.00 L125.33,301.00 L125.81,302.00 L128.10,305.00 L131.57,310.00 L133.36,312.00 L135.59,315.00 L140.23,320.00 L144.16,324.00 L151.00,330.36 L156.00,334.33 L159.00,336.59 L161.00,337.83 L164.00,340.20 L165.00,340.67 L169.00,343.26 L170.00,343.62 L171.00,344.46 L177.00,347.54 L178.00,348.20 L179.00,348.53 L180.00,349.31 L186.00,351.73 L187.00,352.28 L188.00,352.53 L191.00,353.78 L192.00,354.36 L193.00,354.52 L194.01,355.00 L199.00,356.50 L201.00,356.90 L202.00,357.38 L204.00,357.68 L205.00,358.27 L207.00,358.52 L209.00,359.24 L211.00,359.44 L213.24,360.00 L218.00,360.69 L221.00,360.83 L223.00,361.27 L227.00,361.55 L242.00,361.58 L248.00,361.33 L250.00,360.90 L254.00,360.71 L259.00,360.10 L262.00,359.45 L264.00,359.28 L266.00,358.61 L268.00,358.39 L270.00,357.54 L272.00,357.29 L273.00,356.71 L275.00,356.38 L282.00,354.27 L283.00,353.63 L284.00,353.42 L285.00,352.81 L292.00,350.11 L294.00,349.09 L296.00,347.82 L297.00,347.48 L298.00,346.82 L299.00,346.43 L303.00,344.24 L305.00,342.79 L309.00,340.44 L311.00,338.85 L315.00,336.20 L321.00,331.32 L325.87,327.00 L334.00,319.32 L338.00,315.77 L339.00,315.23 L340.00,315.55 L344.49,320.00 L349.36,325.00 L357.58,334.00 L363.40,340.00 L366.87,344.00 L373.48,351.00 L376.02,354.00 L379.00,357.19 L381.34,360.00 L381.72,361.00 L381.52,362.00 L379.10,365.00 L374.20,370.00 L365.00,378.41 L354.00,387.39 L352.00,388.68 L350.00,390.22 L349.00,390.75 L347.00,392.37 L343.00,394.80 L341.00,396.32 L336.00,399.27 L335.00,399.67 L334.00,400.47 L331.00,402.21 L327.00,404.27 L326.00,404.61 L325.00,405.40 L324.00,405.70 L323.00,406.39 L315.00,409.86 L314.00,410.50 L312.00,411.36 L305.00,413.89 L304.00,414.43 L303.00,414.61 L302.00,415.28 L300.00,415.79 L299.00,416.30 L293.00,417.91 L292.00,418.36 L290.00,418.72 L289.00,419.30 L287.00,419.63 L286.00,420.14 L285.00,420.44 L283.00,420.74 L282.00,421.23 L280.00,421.46 L275.00,422.57 L273.00,422.76 L271.00,423.33 L268.00,423.65 L265.00,424.48 L261.00,424.82 L259.00,425.38 L253.00,425.55 L248.00,426.03 Z" fill="url(#iconGradient)"></path>
    <path d="M1444.00,324.45 L1406.00,324.51 L1405.00,324.42 L1404.59,324.00 L1404.59,137.00 L1404.64,136.00 L1405.00,135.64 L1443.00,135.54 L1444.00,135.61 L1444.39,136.00 L1444.44,324.00 L1444.00,324.45 Z M913.00,328.08 L907.00,328.36 L896.00,327.79 L893.00,327.34 L890.00,327.08 L888.00,326.51 L886.00,326.37 L884.00,325.64 L882.00,325.40 L881.00,324.78 L879.00,324.38 L878.00,323.87 L876.00,323.35 L873.00,322.29 L869.00,320.49 L868.00,319.76 L867.00,319.47 L863.00,317.33 L861.00,316.03 L856.00,312.46 L850.00,307.17 L847.00,303.86 L843.79,300.00 L839.79,294.00 L839.36,293.00 L838.56,292.00 L835.52,285.00 L835.28,284.00 L834.58,283.00 L834.44,282.00 L833.61,280.00 L833.49,279.00 L832.78,277.00 L831.81,271.00 L832.00,269.90 L833.00,269.46 L835.00,269.10 L836.00,268.61 L838.00,268.36 L840.00,267.55 L842.00,267.30 L843.00,266.83 L845.00,266.57 L850.00,265.36 L851.00,265.26 L853.00,264.59 L855.00,264.35 L857.00,263.54 L859.00,263.32 L860.00,262.82 L861.00,262.59 L863.00,262.34 L864.00,261.90 L868.00,261.26 L869.24,263.00 L869.46,265.00 L870.25,268.00 L871.70,272.00 L872.44,273.00 L872.74,274.00 L873.47,275.00 L875.82,279.00 L877.50,281.00 L880.00,283.49 L883.40,286.00 L887.00,288.33 L890.00,289.53 L893.00,290.54 L894.00,290.66 L896.00,291.40 L898.00,291.54 L900.00,292.19 L901.00,292.36 L908.00,292.49 L913.00,292.31 L915.00,291.67 L918.00,291.29 L919.00,290.75 L921.00,290.36 L924.00,289.19 L927.00,287.26 L929.58,285.00 L931.18,283.00 L933.28,279.00 L933.65,277.00 L934.19,276.00 L934.39,275.00 L934.45,272.00 L934.24,270.00 L933.66,269.00 L933.18,267.00 L931.57,264.00 L930.12,262.00 L926.84,259.00 L924.00,257.06 L921.00,255.82 L920.00,255.49 L919.00,255.40 L917.00,254.60 L915.00,254.30 L914.00,253.75 L912.00,253.49 L910.00,252.86 L908.00,252.61 L902.00,251.41 L900.00,251.26 L898.00,250.62 L895.00,250.29 L894.00,249.78 L891.00,249.40 L889.00,248.68 L887.00,248.47 L885.00,247.87 L883.00,247.54 L879.00,246.42 L878.00,246.27 L877.00,245.65 L876.00,245.46 L867.00,241.38 L863.00,238.76 L862.00,238.27 L859.00,236.21 L854.00,231.76 L852.29,230.00 L848.78,226.00 L846.74,223.00 L844.48,219.00 L843.74,218.00 L843.44,217.00 L842.79,216.00 L840.74,210.00 L840.33,208.00 L839.55,206.00 L839.29,202.00 L838.84,199.00 L838.71,196.00 L838.83,193.00 L839.33,189.00 L839.60,184.00 L840.26,182.00 L840.48,180.00 L840.77,179.00 L842.87,173.00 L847.87,164.00 L852.60,158.00 L857.00,153.48 L862.00,149.30 L869.00,144.63 L875.00,141.74 L876.00,141.46 L877.00,140.84 L879.00,140.17 L880.00,139.67 L881.00,139.48 L882.00,138.98 L886.00,138.08 L888.00,137.44 L890.00,137.20 L892.00,136.57 L902.00,136.23 L917.00,136.50 L919.00,136.65 L922.00,137.31 L924.00,137.44 L933.00,139.78 L934.00,140.38 L935.00,140.56 L936.00,141.23 L937.00,141.52 L944.00,144.84 L951.00,149.60 L953.74,152.00 L956.00,154.09 L958.76,157.00 L961.26,160.00 L964.13,164.00 L965.70,167.00 L966.38,168.00 L966.70,169.00 L967.48,170.00 L969.10,174.00 L969.91,177.00 L970.38,178.00 L970.79,180.00 L971.34,181.00 L971.51,182.00 L971.55,184.00 L971.00,184.47 L970.00,184.64 L969.00,185.15 L962.00,186.84 L961.00,187.33 L959.00,187.71 L958.00,188.32 L956.00,188.65 L955.00,189.20 L953.00,189.55 L951.00,190.25 L944.00,191.92 L943.00,192.40 L941.00,192.72 L940.00,193.34 L938.00,193.61 L937.00,193.97 L936.00,193.87 L935.36,193.00 L935.06,191.00 L934.24,189.00 L933.50,188.00 L931.26,184.00 L929.00,181.03 L925.77,178.00 L924.00,176.78 L922.00,175.68 L921.00,175.33 L920.00,174.64 L919.00,174.44 L918.00,173.73 L916.00,173.18 L915.00,172.73 L911.00,171.97 L907.00,171.52 L904.00,171.43 L901.00,171.61 L897.00,172.16 L894.00,172.87 L893.00,173.41 L892.00,173.59 L891.00,174.35 L890.00,174.65 L887.00,176.52 L885.00,178.10 L881.64,182.00 L880.00,185.10 L879.36,187.00 L879.08,189.00 L878.72,190.00 L878.56,192.00 L878.70,194.00 L879.33,197.00 L880.57,200.00 L882.74,203.00 L884.00,204.25 L887.00,206.42 L891.00,208.30 L892.00,208.43 L894.00,209.08 L898.00,209.82 L900.00,210.43 L902.00,210.63 L904.00,211.33 L907.00,211.71 L908.00,212.24 L911.00,212.61 L913.00,213.25 L915.00,213.46 L920.00,214.57 L922.00,214.80 L924.00,215.46 L926.00,215.71 L927.00,216.26 L929.00,216.53 L931.00,217.38 L932.00,217.50 L934.00,218.23 L935.00,218.40 L939.00,219.68 L941.00,220.50 L948.00,223.99 L952.00,226.65 L956.00,229.59 L961.00,234.36 L964.26,238.00 L967.14,242.00 L969.02,245.00 L970.47,248.00 L970.77,249.00 L971.47,250.00 L971.70,251.00 L972.36,252.00 L972.56,253.00 L973.07,254.00 L973.84,257.00 L974.67,261.00 L974.81,263.00 L975.32,266.00 L975.51,270.00 L975.39,273.00 L974.77,277.00 L974.63,279.00 L973.80,283.00 L973.31,285.00 L972.53,287.00 L972.38,288.00 L971.68,289.00 L971.44,290.00 L970.82,291.00 L970.53,292.00 L968.12,297.00 L965.00,301.60 L962.47,305.00 L958.73,309.00 L954.00,313.29 L948.95,317.00 L945.00,319.30 L944.00,319.64 L943.00,320.45 L942.00,320.75 L941.00,321.42 L936.00,323.40 L934.00,323.97 L933.00,324.46 L932.00,324.61 L930.00,325.48 L929.00,325.58 L927.00,326.33 L925.00,326.53 L923.00,327.15 L918.00,327.75 L913.00,328.08 Z M697.00,324.51 L578.00,324.51 L577.19,324.00 L577.19,140.00 L577.83,139.00 L578.00,138.89 L617.00,138.89 L617.50,140.00 L617.50,285.00 L618.00,285.70 L697.00,285.70 L697.30,286.00 L697.50,287.00 L697.50,324.00 L697.00,324.51 Z M1788.00,328.02 L1779.00,327.82 L1773.00,327.17 L1771.00,326.62 L1769.00,326.38 L1767.00,325.56 L1766.00,325.43 L1765.00,324.82 L1763.00,324.29 L1762.00,323.75 L1761.00,323.49 L1756.00,321.45 L1755.00,320.70 L1754.00,320.38 L1753.00,319.60 L1752.00,319.16 L1748.00,316.69 L1744.38,314.00 L1741.00,311.24 L1737.78,308.00 L1734.35,304.00 L1729.98,298.00 L1727.71,294.00 L1727.33,293.00 L1726.54,292.00 L1726.25,291.00 L1725.58,290.00 L1723.54,285.00 L1723.27,284.00 L1722.76,283.00 L1722.22,281.00 L1721.59,280.00 L1721.43,279.00 L1720.62,277.00 L1720.53,276.00 L1719.85,274.00 L1718.47,266.00 L1718.30,254.00 L1718.41,237.00 L1719.22,229.00 L1719.82,225.00 L1720.43,223.00 L1720.64,221.00 L1721.15,220.00 L1721.57,218.00 L1722.17,217.00 L1722.62,215.00 L1723.16,214.00 L1724.72,209.00 L1725.97,206.00 L1729.41,199.00 L1729.74,198.00 L1734.71,190.00 L1736.39,188.00 L1737.70,186.00 L1740.98,182.00 L1743.70,179.00 L1749.00,173.94 L1756.00,168.48 L1765.00,162.93 L1768.00,161.52 L1769.00,161.23 L1770.00,160.57 L1771.00,160.28 L1772.00,159.58 L1773.00,159.33 L1774.00,158.66 L1775.00,158.49 L1776.10,158.00 L1781.00,156.44 L1782.00,156.28 L1783.00,155.76 L1785.00,155.40 L1787.00,154.55 L1789.00,154.33 L1790.00,153.87 L1793.00,153.50 L1795.00,153.00 L1801.00,152.28 L1812.00,151.58 L1820.00,151.68 L1830.00,152.34 L1834.00,152.93 L1836.00,153.48 L1838.00,153.71 L1840.00,154.45 L1841.00,154.55 L1843.00,155.43 L1844.00,155.57 L1845.00,156.20 L1846.00,156.46 L1848.00,157.51 L1848.41,158.00 L1848.59,159.00 L1848.48,161.00 L1847.76,163.00 L1846.18,169.00 L1845.61,170.00 L1845.44,171.00 L1844.57,173.00 L1844.43,174.00 L1843.81,175.00 L1843.30,177.00 L1842.84,178.00 L1842.63,179.00 L1841.55,182.00 L1841.36,183.00 L1840.82,184.00 L1840.14,186.00 L1839.56,187.00 L1839.21,188.00 L1838.00,189.82 L1837.00,189.95 L1836.00,189.57 L1834.00,189.31 L1833.00,188.75 L1831.00,188.47 L1829.00,187.62 L1827.00,187.38 L1825.00,186.75 L1823.00,186.61 L1820.00,186.12 L1812.00,185.69 L1803.00,186.07 L1797.00,186.90 L1796.00,187.32 L1794.00,187.65 L1793.00,188.19 L1792.00,188.51 L1791.00,188.66 L1790.00,189.26 L1789.00,189.47 L1786.00,190.60 L1783.00,191.84 L1777.00,195.54 L1772.64,199.00 L1768.63,203.00 L1765.61,207.00 L1765.13,208.00 L1763.64,210.00 L1762.00,213.20 L1761.30,215.00 L1760.69,216.00 L1760.46,217.00 L1759.92,218.00 L1759.27,220.00 L1758.69,221.00 L1757.22,227.00 L1757.53,228.00 L1758.00,228.25 L1760.00,226.63 L1763.00,223.83 L1768.00,219.78 L1772.00,217.55 L1773.00,217.17 L1774.00,216.50 L1775.00,216.22 L1776.00,215.60 L1777.00,215.40 L1778.00,214.83 L1781.00,214.15 L1784.00,213.48 L1787.00,213.18 L1789.00,212.73 L1791.00,212.50 L1804.00,212.48 L1806.00,212.59 L1809.00,213.21 L1811.00,213.37 L1817.00,214.75 L1820.00,215.76 L1821.00,216.43 L1822.00,216.64 L1823.00,217.33 L1824.00,217.67 L1826.70,219.00 L1830.00,220.81 L1832.00,222.39 L1834.00,223.71 L1837.67,227.00 L1841.44,231.00 L1845.15,236.00 L1846.35,238.00 L1848.37,242.00 L1848.69,243.00 L1849.42,244.00 L1849.60,245.00 L1850.25,246.00 L1851.24,249.00 L1852.54,254.00 L1852.74,256.00 L1853.48,259.00 L1854.00,268.00 L1853.38,277.00 L1852.81,279.00 L1852.60,281.00 L1851.16,287.00 L1850.61,288.00 L1850.40,289.00 L1849.11,292.00 L1846.18,298.00 L1844.78,300.00 L1844.28,301.00 L1841.38,305.00 L1836.68,310.00 L1833.00,313.34 L1831.00,314.65 L1829.00,316.31 L1823.00,319.62 L1822.00,320.36 L1821.00,320.64 L1820.00,321.41 L1813.00,324.19 L1811.00,324.71 L1810.00,325.38 L1808.00,325.77 L1807.00,326.35 L1805.00,326.57 L1803.00,327.15 L1797.00,327.81 L1788.00,328.02 Z M1938.00,328.04 L1933.00,328.52 L1926.00,328.51 L1918.00,327.80 L1913.00,327.06 L1912.00,326.67 L1910.00,326.38 L1908.00,325.61 L1907.00,325.50 L1905.00,324.58 L1904.00,324.40 L1903.00,323.85 L1902.00,323.60 L1897.00,321.47 L1890.00,317.35 L1885.56,314.00 L1881.21,310.00 L1876.53,305.00 L1870.87,297.00 L1869.38,294.00 L1868.66,293.00 L1868.37,292.00 L1867.56,291.00 L1864.63,284.00 L1864.40,283.00 L1863.50,281.00 L1863.31,280.00 L1862.66,279.00 L1862.28,277.00 L1861.78,276.00 L1860.39,270.00 L1860.14,268.00 L1859.52,266.00 L1859.28,263.00 L1858.56,260.00 L1858.42,238.00 L1858.57,220.00 L1859.29,217.00 L1859.53,214.00 L1860.16,212.00 L1860.42,210.00 L1861.80,204.00 L1862.33,203.00 L1862.69,201.00 L1863.32,200.00 L1863.51,199.00 L1864.41,197.00 L1864.65,196.00 L1867.56,189.00 L1868.38,188.00 L1868.68,187.00 L1869.37,186.00 L1870.90,183.00 L1873.59,179.00 L1876.53,175.00 L1881.11,170.00 L1887.00,164.79 L1890.00,162.65 L1894.00,160.34 L1895.00,159.58 L1899.00,157.67 L1902.00,156.46 L1903.00,156.24 L1904.00,155.63 L1906.00,155.11 L1907.00,154.56 L1908.00,154.45 L1910.00,153.69 L1912.00,153.41 L1913.00,153.07 L1917.00,152.28 L1922.00,151.87 L1926.00,151.83 L1941.00,152.28 L1947.00,153.00 L1948.00,153.36 L1950.00,153.67 L1952.00,154.42 L1953.00,154.53 L1955.00,155.44 L1956.00,155.68 L1957.00,156.29 L1958.00,156.49 L1961.00,157.73 L1965.00,159.70 L1967.00,161.12 L1968.00,161.52 L1971.00,163.49 L1974.00,165.80 L1977.00,168.40 L1982.48,174.00 L1984.69,177.00 L1986.40,179.00 L1986.90,180.00 L1988.30,182.00 L1989.90,185.00 L1991.29,187.00 L1991.59,188.00 L1992.28,189.00 L1994.64,195.00 L1995.25,196.00 L1995.79,198.00 L1996.42,199.00 L1996.57,200.00 L1997.10,201.00 L1997.52,203.00 L1998.67,207.00 L1998.76,208.00 L1999.41,210.00 L1999.63,212.00 L2000.39,214.00 L2000.75,219.00 L2001.41,223.00 L2001.57,240.00 L2001.34,258.00 L2000.76,261.00 L2000.37,266.00 L1999.61,268.00 L1999.38,270.00 L1998.97,271.00 L1998.61,273.00 L1997.45,277.00 L1997.30,278.00 L1996.52,280.00 L1996.34,281.00 L1995.67,282.00 L1995.49,283.00 L1993.00,288.96 L1991.06,293.00 L1988.17,298.00 L1986.25,301.00 L1982.45,306.00 L1976.00,312.51 L1974.00,314.23 L1970.00,317.24 L1963.00,321.41 L1958.00,323.53 L1957.00,323.74 L1956.00,324.27 L1954.00,324.79 L1953.00,325.45 L1951.00,325.80 L1950.00,326.31 L1948.00,326.54 L1946.00,327.16 L1942.00,327.72 L1938.00,328.04 Z M1662.00,327.11 L1652.00,327.78 L1644.00,327.82 L1633.00,327.06 L1632.00,326.67 L1629.00,326.29 L1628.00,325.80 L1626.00,325.45 L1624.00,324.58 L1623.00,324.45 L1622.00,323.89 L1620.00,323.33 L1615.00,321.37 L1614.00,320.64 L1613.00,320.33 L1612.00,319.56 L1609.00,318.01 L1605.00,315.32 L1600.00,311.47 L1596.00,307.52 L1593.70,305.00 L1588.64,298.00 L1587.99,297.00 L1586.13,293.00 L1585.51,292.00 L1585.21,291.00 L1584.53,290.00 L1584.25,289.00 L1583.67,288.00 L1581.55,280.00 L1581.18,277.00 L1580.83,276.00 L1581.08,275.00 L1582.00,274.49 L1584.00,274.28 L1586.00,273.59 L1589.00,273.22 L1590.00,272.71 L1593.00,272.37 L1595.00,271.69 L1597.00,271.56 L1599.43,271.00 L1606.00,270.06 L1608.00,269.51 L1611.00,269.20 L1613.00,268.53 L1616.00,268.29 L1618.00,267.62 L1619.09,268.00 L1620.12,270.00 L1620.29,272.00 L1620.95,275.00 L1621.41,276.00 L1621.65,277.00 L1622.29,278.00 L1622.63,279.00 L1625.00,282.68 L1626.76,285.00 L1629.76,288.00 L1631.00,289.00 L1633.00,290.31 L1635.00,291.36 L1636.00,291.55 L1637.00,292.21 L1639.00,292.58 L1641.00,293.30 L1646.00,293.92 L1648.00,293.99 L1651.00,293.77 L1654.00,293.34 L1655.00,293.14 L1656.00,292.62 L1657.00,292.45 L1661.00,290.55 L1663.00,289.40 L1665.96,287.00 L1666.91,286.00 L1669.36,283.00 L1669.78,282.00 L1671.07,280.00 L1672.12,277.00 L1672.60,275.00 L1672.77,273.00 L1672.76,267.00 L1672.59,265.00 L1671.22,260.00 L1670.56,259.00 L1670.15,258.00 L1669.00,256.44 L1667.04,254.00 L1666.00,252.99 L1661.00,249.58 L1660.00,249.25 L1659.00,248.63 L1658.00,248.44 L1657.00,248.00 L1653.00,247.22 L1647.00,247.08 L1643.00,247.20 L1639.00,247.92 L1638.00,248.34 L1636.00,248.80 L1635.00,249.38 L1633.00,249.65 L1631.45,248.00 L1628.32,243.00 L1626.76,241.00 L1626.30,240.00 L1623.66,236.00 L1623.21,235.00 L1621.68,233.00 L1619.31,229.00 L1616.60,225.00 L1616.44,224.00 L1617.22,223.00 L1620.00,220.48 L1623.00,218.13 L1626.00,215.45 L1639.00,204.72 L1641.00,203.29 L1644.00,200.62 L1646.00,199.20 L1649.00,196.55 L1652.00,194.25 L1655.79,191.00 L1656.67,190.00 L1656.00,189.53 L1655.00,189.50 L1587.00,189.40 L1586.50,189.00 L1586.37,188.00 L1586.48,164.00 L1586.66,160.00 L1587.08,156.00 L1588.00,155.48 L1704.00,155.50 L1708.00,155.55 L1708.45,156.00 L1708.42,186.00 L1708.00,186.56 L1704.96,189.00 L1700.00,192.73 L1697.00,195.19 L1695.00,196.56 L1693.00,198.34 L1683.00,205.85 L1679.00,209.15 L1677.00,210.51 L1675.00,212.29 L1670.00,215.86 L1667.45,218.00 L1666.49,219.00 L1667.00,219.55 L1669.00,219.75 L1671.00,220.36 L1674.00,220.71 L1675.00,221.28 L1677.00,221.62 L1678.00,222.18 L1680.00,222.73 L1683.00,223.81 L1687.00,225.75 L1689.00,227.16 L1690.00,227.58 L1692.00,228.75 L1695.00,230.95 L1698.00,233.54 L1699.54,235.00 L1703.09,239.00 L1705.25,242.00 L1706.92,245.00 L1708.27,247.00 L1708.64,248.00 L1709.28,249.00 L1709.52,250.00 L1710.37,252.00 L1710.90,254.00 L1711.41,255.00 L1711.75,257.00 L1712.30,258.00 L1712.69,261.00 L1713.39,263.00 L1713.78,272.00 L1713.64,275.00 L1713.33,280.00 L1712.62,282.00 L1712.35,284.00 L1711.78,285.00 L1711.30,287.00 L1709.02,293.00 L1707.47,296.00 L1706.72,297.00 L1706.39,298.00 L1705.70,299.00 L1705.24,300.00 L1703.25,303.00 L1700.02,307.00 L1695.00,312.00 L1688.00,317.32 L1685.00,318.85 L1681.00,321.22 L1680.00,321.52 L1679.00,322.12 L1675.00,323.56 L1674.00,323.74 L1673.00,324.23 L1671.00,324.68 L1670.00,325.29 L1668.00,325.62 L1666.00,326.36 L1664.00,326.54 L1662.00,327.11 Z M1937.11,292.00 L1938.00,291.56 L1940.00,291.17 L1944.00,289.36 L1946.00,288.09 L1948.46,286.00 L1950.35,284.00 L1953.20,280.00 L1954.35,278.00 L1956.51,273.00 L1956.69,272.00 L1957.30,271.00 L1957.81,269.00 L1958.37,268.00 L1958.68,266.00 L1959.11,265.00 L1960.55,256.00 L1960.79,251.00 L1961.29,248.00 L1961.44,245.00 L1961.49,237.00 L1961.35,232.00 L1960.78,228.00 L1960.62,224.00 L1959.93,219.00 L1959.26,215.00 L1958.57,213.00 L1958.22,211.00 L1957.59,210.00 L1957.42,209.00 L1956.87,208.00 L1956.23,206.00 L1954.36,202.00 L1953.18,200.00 L1950.30,196.00 L1948.00,193.70 L1945.00,191.43 L1943.00,190.33 L1939.00,188.56 L1938.00,188.44 L1936.00,187.60 L1934.00,187.46 L1931.00,186.92 L1928.00,186.92 L1925.00,187.43 L1923.00,187.61 L1922.00,187.89 L1921.00,188.44 L1920.00,188.56 L1917.00,189.92 L1914.00,191.57 L1910.16,195.00 L1908.40,197.00 L1905.72,201.00 L1905.33,202.00 L1904.66,203.00 L1902.47,209.00 L1902.34,210.00 L1901.79,211.00 L1901.46,213.00 L1900.65,215.00 L1900.47,217.00 L1899.87,219.00 L1899.72,220.00 L1899.59,222.00 L1899.10,225.00 L1898.43,233.00 L1898.32,244.00 L1898.56,250.00 L1899.80,261.00 L1900.41,263.00 L1900.62,265.00 L1901.44,267.00 L1901.75,269.00 L1902.33,270.00 L1902.47,271.00 L1904.66,277.00 L1905.33,278.00 L1905.67,279.00 L1909.22,284.00 L1913.00,287.55 L1915.00,289.04 L1918.00,290.51 L1919.00,290.79 L1920.00,291.39 L1922.00,291.84 L1923.00,292.36 L1928.00,292.92 L1930.00,293.00 L1936.00,292.40 L1937.11,292.00 Z M759.00,327.17 L752.00,327.82 L745.00,327.79 L739.00,327.16 L737.00,326.61 L735.00,326.37 L733.00,325.60 L732.00,325.50 L731.00,324.90 L729.00,324.30 L723.00,321.43 L722.00,320.64 L721.00,320.13 L716.00,316.18 L710.83,310.00 L708.67,306.00 L708.33,305.00 L707.67,304.00 L707.40,303.00 L706.74,302.00 L706.30,300.00 L705.79,299.00 L705.52,297.00 L705.00,295.00 L704.52,289.00 L704.60,286.00 L705.00,282.00 L705.52,280.00 L705.82,278.00 L706.41,277.00 L706.58,276.00 L707.19,275.00 L707.52,274.00 L708.18,273.00 L708.53,272.00 L710.80,268.00 L715.00,263.21 L718.70,260.00 L722.00,257.60 L726.00,255.48 L727.00,255.19 L728.00,254.55 L729.00,254.23 L730.00,253.58 L731.00,253.40 L732.00,252.80 L735.00,252.00 L739.00,251.21 L741.00,250.62 L744.00,250.26 L746.00,249.55 L749.00,249.32 L751.00,248.64 L754.00,248.45 L757.00,247.76 L760.00,247.54 L767.00,246.42 L769.00,246.28 L772.00,245.53 L774.00,245.35 L776.00,244.52 L777.00,244.39 L778.00,243.74 L779.00,243.44 L780.61,242.00 L781.44,241.00 L781.69,240.00 L782.31,239.00 L782.49,237.00 L782.38,233.00 L781.60,231.00 L781.39,230.00 L780.26,228.00 L778.00,225.66 L774.00,223.56 L771.00,222.57 L769.00,222.39 L767.00,221.76 L765.00,221.59 L762.00,221.59 L760.00,221.77 L758.00,222.39 L756.00,222.61 L755.00,223.13 L753.00,223.69 L751.00,224.65 L748.00,226.89 L744.88,230.00 L743.54,232.00 L742.50,234.00 L742.26,235.00 L741.77,236.00 L741.29,238.00 L740.65,239.00 L740.00,239.56 L738.00,239.49 L735.00,238.80 L733.00,238.64 L726.00,237.39 L724.00,237.23 L722.00,236.60 L719.00,236.26 L718.00,235.76 L715.00,235.39 L713.00,234.65 L711.00,234.44 L709.00,233.80 L708.00,233.68 L707.04,233.00 L707.06,232.00 L707.38,231.00 L707.64,229.00 L708.20,228.00 L708.66,226.00 L709.10,225.00 L709.93,222.00 L710.47,221.00 L710.73,220.00 L712.49,217.00 L713.25,216.00 L713.71,215.00 L715.76,212.00 L720.50,207.00 L723.00,204.79 L725.00,203.39 L727.00,201.70 L733.00,198.33 L734.00,197.61 L735.00,197.28 L736.00,196.57 L737.00,196.32 L738.00,195.77 L742.00,194.40 L743.00,194.22 L744.00,193.70 L746.00,193.36 L747.00,192.83 L748.00,192.53 L750.00,192.35 L752.00,191.68 L761.00,191.45 L772.00,191.63 L773.00,191.67 L776.00,192.31 L780.00,192.55 L782.00,193.30 L784.00,193.53 L786.00,194.25 L787.00,194.37 L792.00,195.97 L793.00,196.50 L794.00,196.79 L801.00,200.70 L803.96,203.00 L807.00,205.61 L808.37,207.00 L812.45,212.00 L814.32,215.00 L814.67,216.00 L815.42,217.00 L815.77,218.00 L816.45,219.00 L818.05,223.00 L818.81,226.00 L819.50,228.00 L820.49,236.00 L820.74,256.00 L821.45,281.00 L821.55,324.00 L821.00,324.48 L819.00,324.51 L788.00,323.84 L787.20,323.00 L786.61,321.00 L786.43,317.00 L785.79,314.00 L785.69,312.00 L785.00,311.21 L779.00,317.44 L773.00,322.07 L770.00,323.55 L769.00,323.85 L768.00,324.46 L767.00,324.69 L766.00,325.37 L764.00,325.82 L763.00,326.36 L761.00,326.59 L759.00,327.17 Z M1064.00,327.12 L1059.00,327.79 L1049.00,327.88 L1041.00,327.80 L1034.00,327.11 L1033.00,326.73 L1030.00,326.25 L1029.00,325.72 L1027.00,325.35 L1026.00,324.67 L1025.00,324.49 L1020.00,322.44 L1019.00,322.17 L1018.00,321.52 L1017.00,321.16 L1015.00,319.85 L1014.00,319.47 L1013.00,318.78 L1010.00,317.24 L1003.00,312.03 L998.67,308.00 L994.22,303.00 L989.92,297.00 L988.69,295.00 L986.68,291.00 L986.34,290.00 L985.63,289.00 L985.37,288.00 L984.68,287.00 L984.48,286.00 L984.00,284.95 L982.45,280.00 L982.10,278.00 L981.63,277.00 L981.16,274.00 L980.64,273.00 L980.30,269.00 L979.75,267.00 L979.65,266.00 L979.59,258.00 L979.65,253.00 L980.31,250.00 L980.68,246.00 L981.21,245.00 L981.68,242.00 L982.16,241.00 L982.52,239.00 L983.77,235.00 L984.90,232.00 L985.45,231.00 L985.77,230.00 L986.45,229.00 L988.92,224.00 L990.33,222.00 L990.80,221.00 L992.35,219.00 L993.63,217.00 L998.84,211.00 L1005.00,205.57 L1009.00,202.64 L1010.00,202.16 L1012.00,200.79 L1016.00,198.69 L1017.00,198.35 L1018.00,197.60 L1019.00,197.37 L1020.00,196.68 L1026.00,194.65 L1028.00,194.22 L1029.00,193.73 L1031.00,193.40 L1033.00,192.54 L1035.00,192.39 L1037.00,191.76 L1038.00,191.63 L1047.00,191.46 L1057.00,191.70 L1059.00,192.23 L1063.00,192.57 L1065.00,193.37 L1067.00,193.61 L1068.00,194.11 L1070.00,194.57 L1074.00,195.89 L1075.00,196.45 L1076.00,196.66 L1077.00,197.37 L1078.00,197.70 L1079.00,198.39 L1085.00,201.59 L1091.00,206.13 L1096.19,211.00 L1101.15,217.00 L1103.53,221.00 L1104.31,222.00 L1107.49,229.00 L1107.75,230.00 L1108.44,231.00 L1108.59,232.00 L1109.42,234.00 L1109.48,235.00 L1109.00,235.67 L1108.00,236.38 L1107.00,236.51 L1105.00,237.25 L1104.00,237.43 L1100.00,238.64 L1099.00,238.79 L1098.00,239.29 L1096.00,239.71 L1095.00,240.37 L1093.00,240.72 L1092.00,241.28 L1090.00,241.66 L1089.00,242.16 L1088.00,242.30 L1085.00,243.05 L1084.00,243.45 L1082.00,243.87 L1081.00,244.40 L1079.00,244.74 L1078.00,245.35 L1076.00,245.65 L1075.00,245.53 L1074.57,245.00 L1074.29,244.00 L1073.67,243.00 L1072.30,240.00 L1071.00,238.01 L1069.00,235.56 L1067.00,233.53 L1062.00,229.93 L1060.00,228.95 L1058.00,228.29 L1054.00,227.59 L1048.00,227.48 L1043.00,227.58 L1039.00,228.38 L1037.28,229.00 L1034.00,230.56 L1033.00,231.38 L1032.00,231.75 L1029.00,233.77 L1027.59,235.00 L1024.86,238.00 L1022.65,241.00 L1020.49,246.00 L1020.33,247.00 L1019.58,249.00 L1019.41,251.00 L1018.72,253.00 L1018.54,255.00 L1018.51,261.00 L1018.56,265.00 L1018.75,267.00 L1019.45,269.00 L1019.70,271.00 L1020.25,272.00 L1020.45,273.00 L1021.71,276.00 L1022.34,277.00 L1022.69,278.00 L1025.62,282.00 L1027.32,284.00 L1031.00,287.22 L1034.00,289.17 L1037.00,290.46 L1038.00,290.64 L1040.00,291.43 L1042.00,291.70 L1043.00,292.17 L1044.00,292.38 L1048.00,292.49 L1053.00,292.41 L1054.00,292.27 L1056.00,291.54 L1058.00,291.31 L1059.00,290.79 L1060.00,290.58 L1063.00,289.38 L1065.00,288.35 L1069.00,285.12 L1071.01,283.00 L1072.49,281.00 L1074.34,278.00 L1074.65,277.00 L1075.40,276.00 L1075.87,275.00 L1077.00,273.74 L1078.00,274.18 L1080.00,274.60 L1081.00,275.02 L1085.00,275.95 L1086.00,276.44 L1088.00,276.89 L1089.00,277.39 L1090.00,277.51 L1092.00,278.40 L1093.00,278.54 L1095.00,279.30 L1101.00,280.85 L1102.00,281.33 L1104.00,281.69 L1105.00,282.32 L1107.00,282.75 L1108.00,283.33 L1109.00,283.47 L1110.08,284.00 L1110.30,285.00 L1109.57,287.00 L1109.42,288.00 L1108.22,291.00 L1107.60,292.00 L1107.33,293.00 L1106.70,294.00 L1105.30,297.00 L1099.51,305.00 L1095.76,309.00 L1092.00,312.71 L1089.00,315.39 L1086.00,317.68 L1082.00,320.27 L1081.00,320.66 L1080.00,321.43 L1075.00,323.51 L1074.00,323.75 L1073.00,324.28 L1071.00,324.78 L1070.00,325.44 L1069.00,325.57 L1067.00,326.36 L1065.00,326.71 L1064.00,327.12 Z M1328.00,328.07 L1324.00,328.34 L1321.00,328.33 L1313.00,327.76 L1308.00,327.00 L1307.00,326.62 L1305.00,326.36 L1303.00,325.59 L1302.00,325.50 L1300.00,324.58 L1299.00,324.38 L1298.00,323.83 L1297.00,323.60 L1293.00,322.06 L1291.00,321.06 L1289.00,319.76 L1288.00,319.36 L1283.00,316.38 L1281.00,314.66 L1279.00,313.24 L1273.00,307.70 L1268.71,303.00 L1265.77,299.00 L1265.29,298.00 L1263.74,296.00 L1262.62,294.00 L1260.65,290.00 L1260.34,289.00 L1259.63,288.00 L1259.41,287.00 L1258.78,286.00 L1257.70,283.00 L1256.32,278.00 L1256.21,277.00 L1255.57,275.00 L1255.33,272.00 L1254.51,268.00 L1254.56,251.00 L1255.26,248.00 L1255.49,245.00 L1256.09,243.00 L1256.47,241.00 L1257.88,236.00 L1258.45,235.00 L1258.63,234.00 L1259.28,233.00 L1259.54,232.00 L1260.23,231.00 L1260.51,230.00 L1261.88,227.00 L1263.54,224.00 L1267.53,218.00 L1272.56,212.00 L1276.00,208.73 L1281.00,204.66 L1287.00,200.69 L1290.00,199.23 L1291.00,198.59 L1292.00,198.32 L1293.00,197.56 L1294.00,197.30 L1295.00,196.66 L1296.00,196.39 L1297.00,195.82 L1298.00,195.63 L1301.00,194.59 L1303.00,194.19 L1304.00,193.67 L1306.00,193.38 L1308.00,192.54 L1310.00,192.36 L1312.00,191.72 L1321.00,191.47 L1331.00,191.64 L1335.00,192.38 L1338.00,192.59 L1340.00,193.39 L1342.00,193.69 L1343.00,194.20 L1345.00,194.63 L1348.00,195.66 L1349.00,195.85 L1350.00,196.44 L1351.00,196.72 L1352.00,197.36 L1353.00,197.64 L1354.00,198.38 L1355.00,198.70 L1356.00,199.34 L1359.00,200.77 L1366.00,205.60 L1372.00,210.92 L1377.42,217.00 L1379.57,220.00 L1383.40,226.00 L1386.14,232.00 L1386.89,234.00 L1387.47,235.00 L1387.66,236.00 L1388.24,237.00 L1388.67,239.00 L1389.09,240.00 L1389.72,243.00 L1389.90,245.00 L1390.50,248.00 L1390.75,254.00 L1391.23,260.00 L1391.22,264.00 L1390.51,272.00 L1389.94,274.00 L1389.02,279.00 L1388.62,280.00 L1388.20,282.00 L1387.63,283.00 L1387.46,284.00 L1386.22,287.00 L1385.64,288.00 L1384.06,292.00 L1382.41,295.00 L1381.62,296.00 L1379.30,300.00 L1377.00,303.00 L1373.00,307.63 L1369.00,311.51 L1367.00,313.24 L1365.00,314.62 L1363.00,316.33 L1354.00,321.44 L1347.00,324.20 L1345.00,324.70 L1344.00,325.36 L1342.00,325.70 L1341.00,326.25 L1339.00,326.50 L1337.00,327.12 L1332.00,327.80 L1328.00,328.07 Z M1513.00,327.11 L1506.00,327.77 L1500.00,327.82 L1492.00,327.10 L1490.00,326.50 L1488.00,326.25 L1487.00,325.69 L1485.00,325.31 L1484.00,324.64 L1483.00,324.41 L1482.00,323.86 L1481.00,323.59 L1478.00,322.22 L1475.00,320.36 L1470.68,317.00 L1465.97,312.00 L1462.74,307.00 L1462.41,306.00 L1461.67,305.00 L1460.07,301.00 L1459.32,298.00 L1458.49,292.00 L1458.53,284.00 L1459.41,279.00 L1460.66,275.00 L1461.23,274.00 L1461.54,273.00 L1464.66,268.00 L1466.19,266.00 L1470.00,262.00 L1474.00,258.72 L1477.00,256.77 L1479.00,255.70 L1480.00,255.36 L1481.00,254.66 L1482.00,254.40 L1483.00,253.74 L1486.00,252.67 L1491.00,251.45 L1493.00,251.18 L1495.00,250.59 L1498.00,250.27 L1500.00,249.57 L1503.00,249.35 L1505.00,248.67 L1509.00,248.33 L1511.00,247.77 L1514.00,247.54 L1520.00,246.49 L1523.00,246.13 L1525.00,245.53 L1527.00,245.35 L1529.00,244.53 L1530.00,244.45 L1531.00,244.09 L1534.00,242.38 L1535.28,241.00 L1536.33,239.00 L1536.56,238.00 L1536.56,234.00 L1536.36,233.00 L1535.03,230.00 L1533.57,228.00 L1531.00,225.56 L1529.00,224.24 L1525.00,222.57 L1523.00,222.31 L1522.00,221.82 L1520.00,221.55 L1515.00,221.54 L1513.00,221.73 L1512.00,222.19 L1510.00,222.51 L1506.07,224.00 L1503.00,225.80 L1501.00,227.50 L1499.43,229.00 L1497.86,231.00 L1496.67,233.00 L1496.34,234.00 L1495.64,235.00 L1495.49,236.00 L1494.62,238.00 L1494.42,239.00 L1494.00,239.65 L1493.00,240.28 L1492.00,239.78 L1489.00,239.40 L1487.00,238.77 L1485.00,238.56 L1480.00,237.48 L1478.00,237.27 L1476.00,236.63 L1473.00,236.24 L1472.00,235.73 L1469.00,235.35 L1468.00,234.88 L1467.00,234.63 L1465.00,234.44 L1463.00,233.84 L1462.00,233.73 L1461.00,233.30 L1460.78,233.00 L1460.77,232.00 L1461.37,230.00 L1461.60,228.00 L1462.13,227.00 L1462.62,225.00 L1463.26,224.00 L1463.51,223.00 L1465.72,218.00 L1466.95,216.00 L1470.55,211.00 L1475.00,206.24 L1479.00,202.93 L1482.00,200.71 L1485.00,199.17 L1489.00,196.83 L1491.00,195.98 L1495.00,194.61 L1497.00,194.12 L1498.00,193.63 L1500.00,193.32 L1501.00,192.79 L1502.00,192.51 L1504.00,192.34 L1506.00,191.72 L1516.00,191.44 L1528.00,191.69 L1531.00,192.36 L1534.00,192.52 L1536.00,193.29 L1538.00,193.53 L1540.00,194.29 L1545.00,195.75 L1548.00,196.97 L1551.00,198.53 L1556.00,201.73 L1561.00,206.24 L1566.30,212.00 L1568.77,216.00 L1570.23,219.00 L1570.54,220.00 L1571.18,221.00 L1571.78,223.00 L1572.30,224.00 L1572.57,226.00 L1573.12,228.00 L1573.76,236.00 L1574.55,276.00 L1574.73,303.00 L1575.46,317.00 L1575.57,323.00 L1575.00,323.86 L1573.00,324.29 L1571.00,324.41 L1542.00,324.50 L1540.99,324.00 L1540.74,323.00 L1540.19,317.00 L1540.00,311.41 L1539.81,311.00 L1539.00,310.82 L1536.67,313.00 L1533.00,316.90 L1529.00,320.37 L1526.00,322.31 L1522.00,324.27 L1521.00,324.57 L1519.00,325.51 L1518.00,325.66 L1517.00,326.21 L1515.00,326.51 L1513.00,327.11 Z M1173.00,327.05 L1164.00,327.16 L1160.00,326.61 L1156.00,326.34 L1155.00,325.86 L1153.00,325.46 L1151.00,324.56 L1150.00,324.39 L1149.00,323.81 L1146.00,322.68 L1143.00,321.22 L1141.00,319.71 L1140.00,319.27 L1136.00,316.32 L1130.70,311.00 L1126.48,305.00 L1124.41,301.00 L1123.21,298.00 L1122.53,297.00 L1122.39,296.00 L1121.81,295.00 L1121.37,293.00 L1120.84,292.00 L1120.13,288.00 L1119.65,278.00 L1119.36,256.00 L1119.34,196.00 L1120.00,195.12 L1157.00,195.12 L1158.00,196.00 L1158.04,261.00 L1158.26,270.00 L1158.82,276.00 L1159.89,279.00 L1161.56,282.00 L1163.67,285.00 L1166.00,287.26 L1167.01,288.00 L1169.00,289.22 L1172.00,290.42 L1174.00,290.73 L1175.00,291.23 L1176.00,291.40 L1180.00,291.49 L1183.00,291.36 L1185.00,290.68 L1187.00,290.32 L1190.00,289.14 L1193.00,287.38 L1196.00,284.64 L1198.28,282.00 L1199.90,279.00 L1200.60,277.00 L1200.82,274.00 L1201.26,271.00 L1201.48,265.00 L1201.60,206.00 L1201.72,196.00 L1202.00,195.50 L1203.00,195.12 L1239.00,195.12 L1240.00,195.47 L1240.30,196.00 L1240.48,215.00 L1240.72,292.00 L1241.44,312.00 L1241.50,322.00 L1241.62,323.00 L1242.16,324.00 L1241.00,324.51 L1205.00,324.45 L1204.44,324.00 L1204.18,319.00 L1203.51,315.00 L1203.40,313.00 L1203.00,312.50 L1202.00,312.76 L1198.00,316.87 L1195.00,319.32 L1192.00,321.37 L1189.00,322.85 L1186.00,324.14 L1184.00,324.73 L1183.00,325.40 L1181.00,325.76 L1180.00,326.28 L1176.00,326.59 L1173.00,327.05 Z M1328.01,292.00 L1329.00,291.65 L1331.00,291.44 L1332.00,291.09 L1334.00,290.33 L1338.00,288.41 L1341.00,286.27 L1344.00,283.52 L1345.40,282.00 L1347.43,279.00 L1347.80,278.00 L1348.49,277.00 L1350.35,273.00 L1351.62,268.00 L1351.84,265.00 L1352.29,263.00 L1352.42,260.00 L1352.27,257.00 L1351.84,255.00 L1351.61,252.00 L1350.96,249.00 L1350.35,247.00 L1349.23,244.00 L1348.53,243.00 L1347.58,241.00 L1346.46,239.00 L1344.23,236.00 L1343.00,234.64 L1341.00,232.89 L1338.00,230.84 L1336.00,229.76 L1333.89,229.00 L1331.00,228.24 L1330.00,228.14 L1328.00,227.60 L1326.00,227.41 L1320.00,227.38 L1317.00,227.57 L1312.00,228.93 L1311.00,229.48 L1310.00,229.77 L1307.00,231.56 L1304.00,233.66 L1300.61,237.00 L1298.48,240.00 L1297.39,242.00 L1296.65,243.00 L1295.73,245.00 L1294.51,249.00 L1294.24,251.00 L1293.66,253.00 L1293.53,254.00 L1293.44,262.00 L1293.59,266.00 L1293.79,267.00 L1294.21,268.00 L1294.42,270.00 L1295.00,272.00 L1296.53,276.00 L1297.23,277.00 L1297.59,278.00 L1298.39,279.00 L1298.87,280.00 L1299.60,281.00 L1302.00,283.89 L1306.00,287.39 L1309.00,289.27 L1314.00,291.40 L1316.00,291.60 L1318.00,292.18 L1320.00,292.34 L1326.00,292.31 L1328.01,292.00 Z M1793.61,294.00 L1797.00,293.13 L1798.00,292.55 L1799.00,292.31 L1800.00,291.61 L1801.00,291.23 L1804.00,289.44 L1806.00,287.70 L1808.62,285.00 L1809.43,284.00 L1811.28,281.00 L1811.66,280.00 L1812.32,279.00 L1812.52,278.00 L1813.02,277.00 L1813.89,272.00 L1813.94,269.00 L1813.77,266.00 L1813.23,263.00 L1812.26,260.00 L1811.56,259.00 L1811.24,258.00 L1809.00,254.52 L1807.83,253.00 L1804.00,249.70 L1801.00,247.84 L1798.00,246.61 L1796.00,246.11 L1795.00,245.62 L1793.00,245.39 L1792.00,244.89 L1791.00,244.64 L1788.00,244.51 L1782.00,244.58 L1781.00,244.73 L1780.00,245.25 L1778.00,245.58 L1773.00,247.71 L1770.00,249.62 L1766.00,253.40 L1764.68,255.00 L1762.75,258.00 L1761.48,261.00 L1761.32,262.00 L1760.61,264.00 L1760.51,265.00 L1760.49,273.00 L1760.57,274.00 L1761.25,276.00 L1761.39,277.00 L1762.53,280.00 L1763.55,282.00 L1765.79,285.00 L1769.00,288.31 L1772.00,290.38 L1774.00,291.47 L1778.00,293.32 L1779.00,293.47 L1781.00,294.08 L1784.00,294.50 L1789.00,294.61 L1793.61,294.00 Z M767.16,299.00 L770.00,298.18 L773.00,296.34 L774.63,295.00 L778.41,291.00 L779.65,289.00 L780.66,287.00 L780.92,286.00 L781.41,285.00 L781.64,283.00 L782.31,281.00 L782.48,278.00 L782.44,269.00 L782.00,268.08 L781.00,267.58 L779.00,267.78 L777.00,268.44 L774.00,268.67 L772.00,269.36 L769.00,269.59 L767.00,270.18 L764.00,270.47 L757.00,271.73 L755.00,272.36 L753.00,272.63 L749.00,274.55 L747.31,276.00 L744.72,279.00 L743.73,281.00 L742.95,284.00 L742.90,288.00 L743.19,290.00 L743.74,292.00 L745.00,294.00 L746.69,296.00 L748.00,297.21 L749.22,298.00 L751.00,298.84 L754.00,299.60 L763.00,299.69 L765.00,299.49 L767.16,299.00 Z M1519.97,299.00 L1523.00,298.22 L1524.00,297.62 L1525.00,297.32 L1528.00,295.28 L1530.49,293.00 L1533.28,289.00 L1533.62,288.00 L1534.27,287.00 L1535.00,284.54 L1535.63,282.00 L1535.96,279.00 L1536.43,277.00 L1536.59,274.00 L1536.59,269.00 L1536.32,268.00 L1536.00,267.72 L1535.00,267.58 L1534.00,267.65 L1531.00,268.47 L1528.00,268.72 L1526.00,269.40 L1523.00,269.63 L1521.00,270.23 L1518.00,270.52 L1511.00,271.83 L1510.00,272.27 L1508.00,272.64 L1507.00,273.24 L1505.00,273.79 L1504.00,274.41 L1503.00,274.73 L1501.00,275.89 L1500.00,276.67 L1498.74,278.00 L1497.39,281.00 L1497.14,283.00 L1496.69,285.00 L1496.66,287.00 L1496.72,288.00 L1497.69,292.00 L1498.70,294.00 L1499.49,295.00 L1502.00,297.25 L1505.00,298.88 L1507.00,299.54 L1509.00,299.72 L1516.00,299.64 L1519.97,299.00 Z" fill="url(#textGradient)"></path>
  </g>
</svg>